<svg xmlns="http://www.w3.org/2000/svg" width="1129" height="663" viewBox="0 0 1129 663"><title>Focus on What Matters</title><circle cx="321" cy="321" r="321" fill="#f2f2f2"/><ellipse cx="559" cy="635.5" fill="#3f3d56" rx="514" ry="27.5"/><ellipse cx="558" cy="627" opacity=".2" rx="460" ry="22"/><rect width="840" height="50" x="131" y="152.5" fill="#3f3d56"/><path fill="#3f3d56" d="M 166.5 725.3 C 166.5 731.1 168.8 736.6 172.9 740.6 C 176.9 744.7 182.4 747 188.2 747 H 984.8 C 990.6 747 996.1 744.7 1000.1 740.6 C 1004.2 736.6 1006.5 731.1 1006.5 725.3 V 294 h -840 Z" transform="matrix(1,0,0,1,-35.5,-118.5)"/><path fill="#3f3d56" d="M 984.8 236 H 188.2 A 21.7 21.7 0 0 0 166.5 257.7 V 296 h 840 V 257.7 A 21.7 21.7 0 0 0 984.8 236 Z" transform="translate(-35.5,-118.5)"/><path d="M 984.8 236 H 188.2 A 21.7 21.7 0 0 0 166.5 257.7 V 296 h 840 V 257.7 A 21.7 21.7 0 0 0 984.8 236 Z" opacity=".2" transform="translate(-35.5,-118.5)"/><circle cx="181" cy="147.5" r="13" fill="#3f3d56"/><circle cx="217" cy="147.5" r="13" fill="#3f3d56"/><circle cx="253" cy="147.5" r="13" fill="#3f3d56"/><rect width="337" height="386" x="168" y="213.5" fill="#606060" rx="5.3"/><rect width="284" height="22" x="603" y="272.5" fill="rgb(36, 59, 73)" rx="5.5"/><rect width="416" height="15" x="537" y="351.5" fill="rgb(32, 61, 73)" rx="5.5"/><rect width="416" height="15" x="537" y="396.5" fill="rgb(38, 60, 73)" rx="5.5"/><rect width="416" height="15" x="537" y="440.5" fill="rgb(38, 57, 77)" rx="5.5"/><rect width="416" height="15" x="537" y="484.5" fill="rgb(35, 58, 77)" rx="5.5"/><rect width="88" height="26" x="865" y="552.5" fill="rgb(33, 52, 80)" rx="7"/><path fill="#3f3d56" d="M 1088.6 624.6 a 30.1 30.1 0 0 0 4 -15.3 c 0 -13.8 -8.5 -25 -19.1 -25 s -19.1 11.2 -19.1 25 a 30.1 30.1 0 0 0 4 15.3 a 31.2 31.2 0 0 0 0 30.5 a 31.2 31.2 0 0 0 0 30.5 a 31.2 31.2 0 0 0 0 30.5 a 30.1 30.1 0 0 0 -4 15.3 c 0 13.8 8.5 25 19.1 25 s 19.1 -11.2 19.1 -25 a 30.1 30.1 0 0 0 -4 -15.3 a 31.2 31.2 0 0 0 0 -30.5 a 31.2 31.2 0 0 0 0 -30.5 a 31.2 31.2 0 0 0 0 -30.5 Z" transform="translate(-35.5,-118.5)"/><ellipse cx="1038" cy="460.3" fill="#3f3d56" rx="19.1" ry="25"/><ellipse cx="1038" cy="429.8" fill="#3f3d56" rx="19.1" ry="25"/><path fill="rgb(62, 119, 204)" fill-rule="evenodd" d="M 1145.9 339.3 C 1148.5 336 1150.9 332.5 1153 328.8 l -50.1 -8.2 l 54.2 0.4 C 1167.6 298.1 1168.2 271.9 1158.8 248.6 l -72.8 37.7 l 67.1 -49.3 C 1135.9 207.5 1103.7 190.1 1069.6 191.8 C 1035.6 193.5 1005.3 214 991.1 245 C 976.9 276.1 981.1 312.4 1002.1 339.3 C 998 344.5 994.6 350.1 991.7 356 l 65.1 33.8 l -69.4 -23.3 C 977.5 395.7 983 428 1002.1 452.3 C 972.6 489.8 976.9 543.6 1011.9 575.9 C 1047 608.3 1100.9 608.3 1136 575.9 C 1171 543.6 1175.3 489.8 1145.8 452.3 C 1171.9 419.1 1171.9 372.5 1145.8 339.3 Z" transform="matrix(1,0,0,1,-35.5,-118.5)"/><path d="M 981.7 395.9 a 91 91 0 0 0 19.6 56.5 a 91.4 91.4 0 1 0 143.7 0 C 1157.2 436.8 981.7 385.6 981.7 395.9 Z" opacity=".1" transform="matrix(1,0,0,1,-35.5,-118.5)"/>
    <radialGradient id="y9ur7wri"/>
    <rect fill="rgb(36, 59, 73)" x="603" y="272.5" width="284" height="22" rx="5.5"/>
    <rect fill="rgb(36, 59, 73)" x="603" y="272.5" width="284" height="22" rx="5.5"/>
    <rect fill="rgb(36, 59, 73)" x="603" y="272.5" width="284" height="22" rx="5.5"/></svg>
